<mxfile host="app.diagrams.net" agent="Mozilla/5.0 (X11; Linux x86_64) AppleWebKit/537.36 (KHTML, like Gecko) Chrome/135.0.0.0 Safari/537.36" version="26.3.0">
  <diagram name="Page-1" id="dVnpd2hLh7rOsy6tHNEL">
    <mxGraphModel grid="1" page="1" gridSize="10" guides="1" tooltips="1" connect="1" arrows="1" fold="1" pageScale="1" pageWidth="850" pageHeight="1100" background="#ffffff" math="0" shadow="1">
      <root>
        <mxCell id="0" />
        <mxCell id="1" parent="0" />
        <mxCell id="YmNPueGEyuX-N4yrCMFB-1" value="" style="swimlane;startSize=0;labelBackgroundColor=light-dark(#FFFFFF,#0000CC);fillColor=light-dark(#FFFFFF,#0000FF);" vertex="1" parent="1">
          <mxGeometry x="160" y="60" width="580" height="920" as="geometry" />
        </mxCell>
        <mxCell id="YmNPueGEyuX-N4yrCMFB-20" value="Register/Login User" style="ellipse;whiteSpace=wrap;html=1;" vertex="1" parent="YmNPueGEyuX-N4yrCMFB-1">
          <mxGeometry x="190" y="40" width="120" height="80" as="geometry" />
        </mxCell>
        <mxCell id="YmNPueGEyuX-N4yrCMFB-21" value="List Property" style="ellipse;whiteSpace=wrap;html=1;" vertex="1" parent="YmNPueGEyuX-N4yrCMFB-1">
          <mxGeometry x="175" y="240" width="170" height="60" as="geometry" />
        </mxCell>
        <mxCell id="YmNPueGEyuX-N4yrCMFB-22" value="Search Property" style="ellipse;whiteSpace=wrap;html=1;" vertex="1" parent="YmNPueGEyuX-N4yrCMFB-1">
          <mxGeometry x="185" y="390" width="160" height="60" as="geometry" />
        </mxCell>
        <mxCell id="YmNPueGEyuX-N4yrCMFB-23" value="Leave Reviews" style="ellipse;whiteSpace=wrap;html=1;" vertex="1" parent="YmNPueGEyuX-N4yrCMFB-1">
          <mxGeometry x="185" y="680" width="175" height="80" as="geometry" />
        </mxCell>
        <mxCell id="YmNPueGEyuX-N4yrCMFB-25" value="Crate Property" style="ellipse;whiteSpace=wrap;html=1;" vertex="1" parent="YmNPueGEyuX-N4yrCMFB-1">
          <mxGeometry x="175" y="160" width="150" height="60" as="geometry" />
        </mxCell>
        <mxCell id="YmNPueGEyuX-N4yrCMFB-26" value="Delete Property" style="ellipse;whiteSpace=wrap;html=1;" vertex="1" parent="YmNPueGEyuX-N4yrCMFB-1">
          <mxGeometry x="175" y="310" width="170" height="70" as="geometry" />
        </mxCell>
        <mxCell id="YmNPueGEyuX-N4yrCMFB-27" value="Manage Users" style="ellipse;whiteSpace=wrap;html=1;" vertex="1" parent="YmNPueGEyuX-N4yrCMFB-1">
          <mxGeometry x="405" y="40" width="120" height="80" as="geometry" />
        </mxCell>
        <mxCell id="YmNPueGEyuX-N4yrCMFB-29" value="Manage Listings" style="ellipse;whiteSpace=wrap;html=1;" vertex="1" parent="YmNPueGEyuX-N4yrCMFB-1">
          <mxGeometry x="420" y="300" width="120" height="80" as="geometry" />
        </mxCell>
        <mxCell id="YmNPueGEyuX-N4yrCMFB-30" value="Manage Bookings" style="ellipse;whiteSpace=wrap;html=1;" vertex="1" parent="YmNPueGEyuX-N4yrCMFB-1">
          <mxGeometry x="395" y="580" width="120" height="80" as="geometry" />
        </mxCell>
        <mxCell id="YmNPueGEyuX-N4yrCMFB-31" value="Monitor Payments" style="ellipse;whiteSpace=wrap;html=1;" vertex="1" parent="YmNPueGEyuX-N4yrCMFB-1">
          <mxGeometry x="420" y="800" width="120" height="80" as="geometry" />
        </mxCell>
        <mxCell id="YmNPueGEyuX-N4yrCMFB-32" value="" style="endArrow=block;dashed=1;endFill=0;endSize=12;html=1;rounded=0;exitX=0;exitY=0.5;exitDx=0;exitDy=0;entryX=1;entryY=0.5;entryDx=0;entryDy=0;" edge="1" parent="YmNPueGEyuX-N4yrCMFB-1" source="YmNPueGEyuX-N4yrCMFB-27" target="YmNPueGEyuX-N4yrCMFB-20">
          <mxGeometry width="160" relative="1" as="geometry">
            <mxPoint x="400" y="80" as="sourcePoint" />
            <mxPoint x="320" y="310" as="targetPoint" />
          </mxGeometry>
        </mxCell>
        <mxCell id="YmNPueGEyuX-N4yrCMFB-33" value="&amp;lt;&amp;lt;Extends&amp;gt;&amp;gt;" style="text;strokeColor=none;align=center;fillColor=none;html=1;verticalAlign=middle;whiteSpace=wrap;rounded=0;" vertex="1" parent="YmNPueGEyuX-N4yrCMFB-1">
          <mxGeometry x="335" y="60" width="60" height="30" as="geometry" />
        </mxCell>
        <mxCell id="YmNPueGEyuX-N4yrCMFB-38" value="" style="endArrow=block;dashed=1;endFill=0;endSize=12;html=1;rounded=0;exitX=0;exitY=0.5;exitDx=0;exitDy=0;entryX=1;entryY=0.5;entryDx=0;entryDy=0;" edge="1" parent="YmNPueGEyuX-N4yrCMFB-1" source="YmNPueGEyuX-N4yrCMFB-29" target="YmNPueGEyuX-N4yrCMFB-22">
          <mxGeometry width="160" relative="1" as="geometry">
            <mxPoint x="440" y="60" as="sourcePoint" />
            <mxPoint x="350" y="60" as="targetPoint" />
          </mxGeometry>
        </mxCell>
        <mxCell id="YmNPueGEyuX-N4yrCMFB-39" value="" style="endArrow=block;dashed=1;endFill=0;endSize=12;html=1;rounded=0;entryX=1;entryY=0.5;entryDx=0;entryDy=0;exitX=0;exitY=0.5;exitDx=0;exitDy=0;" edge="1" parent="YmNPueGEyuX-N4yrCMFB-1" source="YmNPueGEyuX-N4yrCMFB-29" target="YmNPueGEyuX-N4yrCMFB-26">
          <mxGeometry width="160" relative="1" as="geometry">
            <mxPoint x="400" y="270" as="sourcePoint" />
            <mxPoint x="360" y="70" as="targetPoint" />
          </mxGeometry>
        </mxCell>
        <mxCell id="YmNPueGEyuX-N4yrCMFB-40" value="" style="endArrow=block;dashed=1;endFill=0;endSize=12;html=1;rounded=0;exitX=0;exitY=0.5;exitDx=0;exitDy=0;entryX=1;entryY=0.5;entryDx=0;entryDy=0;" edge="1" parent="YmNPueGEyuX-N4yrCMFB-1" source="YmNPueGEyuX-N4yrCMFB-29" target="YmNPueGEyuX-N4yrCMFB-21">
          <mxGeometry width="160" relative="1" as="geometry">
            <mxPoint x="460" y="80" as="sourcePoint" />
            <mxPoint x="370" y="80" as="targetPoint" />
          </mxGeometry>
        </mxCell>
        <mxCell id="YmNPueGEyuX-N4yrCMFB-41" value="" style="endArrow=block;dashed=1;endFill=0;endSize=12;html=1;rounded=0;exitX=0;exitY=0.5;exitDx=0;exitDy=0;entryX=1;entryY=0.5;entryDx=0;entryDy=0;" edge="1" parent="YmNPueGEyuX-N4yrCMFB-1" source="YmNPueGEyuX-N4yrCMFB-29" target="YmNPueGEyuX-N4yrCMFB-25">
          <mxGeometry width="160" relative="1" as="geometry">
            <mxPoint x="470" y="90" as="sourcePoint" />
            <mxPoint x="380" y="90" as="targetPoint" />
          </mxGeometry>
        </mxCell>
        <mxCell id="YmNPueGEyuX-N4yrCMFB-42" value="Place Booking" style="ellipse;whiteSpace=wrap;html=1;" vertex="1" parent="YmNPueGEyuX-N4yrCMFB-1">
          <mxGeometry x="185" y="470" width="160" height="60" as="geometry" />
        </mxCell>
        <mxCell id="YmNPueGEyuX-N4yrCMFB-43" value="Cancel Booking" style="ellipse;whiteSpace=wrap;html=1;" vertex="1" parent="YmNPueGEyuX-N4yrCMFB-1">
          <mxGeometry x="185" y="540" width="160" height="60" as="geometry" />
        </mxCell>
        <mxCell id="YmNPueGEyuX-N4yrCMFB-44" value="Accept/Reject Booking" style="ellipse;whiteSpace=wrap;html=1;" vertex="1" parent="YmNPueGEyuX-N4yrCMFB-1">
          <mxGeometry x="185" y="610" width="160" height="60" as="geometry" />
        </mxCell>
        <mxCell id="YmNPueGEyuX-N4yrCMFB-45" value="Make payment" style="ellipse;whiteSpace=wrap;html=1;" vertex="1" parent="YmNPueGEyuX-N4yrCMFB-1">
          <mxGeometry x="200" y="780" width="160" height="60" as="geometry" />
        </mxCell>
        <mxCell id="YmNPueGEyuX-N4yrCMFB-47" value="Return Payment" style="ellipse;whiteSpace=wrap;html=1;" vertex="1" parent="YmNPueGEyuX-N4yrCMFB-1">
          <mxGeometry x="200" y="850" width="160" height="60" as="geometry" />
        </mxCell>
        <mxCell id="YmNPueGEyuX-N4yrCMFB-48" value="" style="endArrow=block;dashed=1;endFill=0;endSize=12;html=1;rounded=0;exitX=0;exitY=0.5;exitDx=0;exitDy=0;entryX=1;entryY=0.5;entryDx=0;entryDy=0;" edge="1" parent="YmNPueGEyuX-N4yrCMFB-1" source="YmNPueGEyuX-N4yrCMFB-30">
          <mxGeometry width="160" relative="1" as="geometry">
            <mxPoint x="385" y="680" as="sourcePoint" />
            <mxPoint x="345" y="490" as="targetPoint" />
          </mxGeometry>
        </mxCell>
        <mxCell id="YmNPueGEyuX-N4yrCMFB-49" value="" style="endArrow=block;dashed=1;endFill=0;endSize=12;html=1;rounded=0;exitX=0;exitY=0.6;exitDx=0;exitDy=0;entryX=1;entryY=0.5;entryDx=0;entryDy=0;exitPerimeter=0;" edge="1" parent="YmNPueGEyuX-N4yrCMFB-1" source="YmNPueGEyuX-N4yrCMFB-30" target="YmNPueGEyuX-N4yrCMFB-43">
          <mxGeometry width="160" relative="1" as="geometry">
            <mxPoint x="405" y="630" as="sourcePoint" />
            <mxPoint x="355" y="500" as="targetPoint" />
          </mxGeometry>
        </mxCell>
        <mxCell id="YmNPueGEyuX-N4yrCMFB-50" value="" style="endArrow=block;dashed=1;endFill=0;endSize=12;html=1;rounded=0;exitX=0.017;exitY=0.65;exitDx=0;exitDy=0;entryX=1;entryY=0.5;entryDx=0;entryDy=0;exitPerimeter=0;" edge="1" parent="YmNPueGEyuX-N4yrCMFB-1" source="YmNPueGEyuX-N4yrCMFB-30" target="YmNPueGEyuX-N4yrCMFB-44">
          <mxGeometry width="160" relative="1" as="geometry">
            <mxPoint x="405" y="638" as="sourcePoint" />
            <mxPoint x="355" y="580" as="targetPoint" />
          </mxGeometry>
        </mxCell>
        <mxCell id="YmNPueGEyuX-N4yrCMFB-51" value="" style="endArrow=block;dashed=1;endFill=0;endSize=12;html=1;rounded=0;entryX=1.019;entryY=0.383;entryDx=0;entryDy=0;exitX=0;exitY=0.5;exitDx=0;exitDy=0;entryPerimeter=0;" edge="1" parent="YmNPueGEyuX-N4yrCMFB-1" source="YmNPueGEyuX-N4yrCMFB-31" target="YmNPueGEyuX-N4yrCMFB-45">
          <mxGeometry width="160" relative="1" as="geometry">
            <mxPoint x="630" y="630" as="sourcePoint" />
            <mxPoint x="355" y="650" as="targetPoint" />
          </mxGeometry>
        </mxCell>
        <mxCell id="YmNPueGEyuX-N4yrCMFB-52" value="" style="endArrow=block;dashed=1;endFill=0;endSize=12;html=1;rounded=0;entryX=1;entryY=0.5;entryDx=0;entryDy=0;" edge="1" parent="YmNPueGEyuX-N4yrCMFB-1" target="YmNPueGEyuX-N4yrCMFB-47">
          <mxGeometry width="160" relative="1" as="geometry">
            <mxPoint x="420" y="840" as="sourcePoint" />
            <mxPoint x="373" y="813" as="targetPoint" />
          </mxGeometry>
        </mxCell>
        <mxCell id="YmNPueGEyuX-N4yrCMFB-53" value="&amp;lt;&amp;lt;Extends&amp;gt;&amp;gt;" style="text;strokeColor=none;align=center;fillColor=none;html=1;verticalAlign=middle;whiteSpace=wrap;rounded=0;rotation=60;" vertex="1" parent="YmNPueGEyuX-N4yrCMFB-1">
          <mxGeometry x="350" y="220" width="60" height="30" as="geometry" />
        </mxCell>
        <mxCell id="YmNPueGEyuX-N4yrCMFB-54" value="&amp;lt;&amp;lt;Extends&amp;gt;&amp;gt;" style="text;strokeColor=none;align=center;fillColor=none;html=1;verticalAlign=middle;whiteSpace=wrap;rounded=0;rotation=35;" vertex="1" parent="YmNPueGEyuX-N4yrCMFB-1">
          <mxGeometry x="340" y="290" width="60" height="30" as="geometry" />
        </mxCell>
        <mxCell id="YmNPueGEyuX-N4yrCMFB-55" value="&amp;lt;&amp;lt;Extends&amp;gt;&amp;gt;" style="text;strokeColor=none;align=center;fillColor=none;html=1;verticalAlign=middle;whiteSpace=wrap;rounded=0;rotation=0;" vertex="1" parent="YmNPueGEyuX-N4yrCMFB-1">
          <mxGeometry x="360" y="340" width="45" height="20" as="geometry" />
        </mxCell>
        <mxCell id="YmNPueGEyuX-N4yrCMFB-57" value="&amp;lt;&amp;lt;Extends&amp;gt;&amp;gt;" style="text;strokeColor=none;align=center;fillColor=none;html=1;verticalAlign=middle;whiteSpace=wrap;rounded=0;rotation=-50;" vertex="1" parent="YmNPueGEyuX-N4yrCMFB-1">
          <mxGeometry x="360" y="370" width="60" height="30" as="geometry" />
        </mxCell>
        <mxCell id="YmNPueGEyuX-N4yrCMFB-58" value="&amp;lt;&amp;lt;Extends&amp;gt;&amp;gt;" style="text;strokeColor=none;align=center;fillColor=none;html=1;verticalAlign=middle;whiteSpace=wrap;rounded=0;rotation=75;" vertex="1" parent="YmNPueGEyuX-N4yrCMFB-1">
          <mxGeometry x="355" y="540" width="60" height="30" as="geometry" />
        </mxCell>
        <mxCell id="YmNPueGEyuX-N4yrCMFB-59" value="&amp;lt;&amp;lt;Extends&amp;gt;&amp;gt;" style="text;strokeColor=none;align=center;fillColor=none;html=1;verticalAlign=middle;whiteSpace=wrap;rounded=0;rotation=-5;" vertex="1" parent="YmNPueGEyuX-N4yrCMFB-1">
          <mxGeometry x="355" y="640" width="40" height="30" as="geometry" />
        </mxCell>
        <mxCell id="YmNPueGEyuX-N4yrCMFB-60" value="&amp;lt;&amp;lt;Extends&amp;gt;&amp;gt;" style="text;strokeColor=none;align=center;fillColor=none;html=1;verticalAlign=middle;whiteSpace=wrap;rounded=0;rotation=45;" vertex="1" parent="YmNPueGEyuX-N4yrCMFB-1">
          <mxGeometry x="335" y="590" width="60" height="30" as="geometry" />
        </mxCell>
        <mxCell id="YmNPueGEyuX-N4yrCMFB-61" value="&amp;lt;&amp;lt;Extends&amp;gt;&amp;gt;" style="text;strokeColor=none;align=center;fillColor=none;html=1;verticalAlign=middle;whiteSpace=wrap;rounded=0;rotation=30;" vertex="1" parent="YmNPueGEyuX-N4yrCMFB-1">
          <mxGeometry x="370" y="800" width="50" height="20" as="geometry" />
        </mxCell>
        <mxCell id="YmNPueGEyuX-N4yrCMFB-64" value="&amp;lt;&amp;lt;Extends&amp;gt;&amp;gt;" style="text;strokeColor=none;align=center;fillColor=none;html=1;verticalAlign=middle;whiteSpace=wrap;rounded=0;rotation=-5;" vertex="1" parent="YmNPueGEyuX-N4yrCMFB-1">
          <mxGeometry x="355" y="840" width="40" height="30" as="geometry" />
        </mxCell>
        <mxCell id="YmNPueGEyuX-N4yrCMFB-86" value="AIRBNB CLONE USE CASE DIAGRAM" style="text;strokeColor=none;align=center;fillColor=none;html=1;verticalAlign=middle;whiteSpace=wrap;rounded=0;" vertex="1" parent="YmNPueGEyuX-N4yrCMFB-1">
          <mxGeometry x="152.5" width="240" height="30" as="geometry" />
        </mxCell>
        <mxCell id="YmNPueGEyuX-N4yrCMFB-2" value="Actor" style="shape=umlActor;verticalLabelPosition=bottom;verticalAlign=top;outlineConnect=0;spacingTop=0;fontStyle=0;html=1;" vertex="1" parent="1">
          <mxGeometry x="100" y="390" width="30" height="100" as="geometry" />
        </mxCell>
        <mxCell id="YmNPueGEyuX-N4yrCMFB-14" value="Actor" style="shape=umlActor;verticalLabelPosition=bottom;verticalAlign=top;outlineConnect=0;spacingTop=0;fontStyle=0;html=1;" vertex="1" parent="1">
          <mxGeometry x="800" y="520" width="30" height="100" as="geometry" />
        </mxCell>
        <mxCell id="YmNPueGEyuX-N4yrCMFB-15" value="Actor" style="shape=umlActor;verticalLabelPosition=bottom;verticalAlign=top;outlineConnect=0;spacingTop=0;fontStyle=0;html=1;" vertex="1" parent="1">
          <mxGeometry x="100" y="720" width="30" height="100" as="geometry" />
        </mxCell>
        <mxCell id="YmNPueGEyuX-N4yrCMFB-16" value="" style="endArrow=none;html=1;rounded=0;exitX=0.5;exitY=0;exitDx=0;exitDy=0;exitPerimeter=0;" edge="1" parent="1" source="YmNPueGEyuX-N4yrCMFB-15">
          <mxGeometry width="50" height="50" relative="1" as="geometry">
            <mxPoint x="90" y="480" as="sourcePoint" />
            <mxPoint x="115" y="390" as="targetPoint" />
            <Array as="points">
              <mxPoint x="30" y="720" />
              <mxPoint x="30" y="390" />
              <mxPoint x="115" y="390" />
            </Array>
          </mxGeometry>
        </mxCell>
        <mxCell id="YmNPueGEyuX-N4yrCMFB-17" value="" style="endArrow=none;html=1;rounded=0;" edge="1" parent="1">
          <mxGeometry width="50" height="50" relative="1" as="geometry">
            <mxPoint x="30" y="530" as="sourcePoint" />
            <mxPoint x="80" y="160" as="targetPoint" />
            <Array as="points">
              <mxPoint x="10" y="530" />
              <mxPoint x="10" y="200" />
              <mxPoint x="80" y="200" />
            </Array>
          </mxGeometry>
        </mxCell>
        <mxCell id="YmNPueGEyuX-N4yrCMFB-18" value="" style="endArrow=classic;html=1;rounded=0;" edge="1" parent="1">
          <mxGeometry width="50" height="50" relative="1" as="geometry">
            <mxPoint x="80" y="200" as="sourcePoint" />
            <mxPoint x="80" y="140" as="targetPoint" />
          </mxGeometry>
        </mxCell>
        <mxCell id="YmNPueGEyuX-N4yrCMFB-19" value="Actor" style="shape=umlActor;verticalLabelPosition=bottom;verticalAlign=top;outlineConnect=0;spacingTop=0;fontStyle=0;html=1;" vertex="1" parent="1">
          <mxGeometry x="60" y="10" width="30" height="80" as="geometry" />
        </mxCell>
        <mxCell id="YmNPueGEyuX-N4yrCMFB-34" value="" style="endArrow=none;html=1;rounded=0;exitX=1;exitY=0.5;exitDx=0;exitDy=0;entryX=0.5;entryY=0.5;entryDx=0;entryDy=0;entryPerimeter=0;" edge="1" parent="1" source="YmNPueGEyuX-N4yrCMFB-27" target="YmNPueGEyuX-N4yrCMFB-14">
          <mxGeometry width="50" height="50" relative="1" as="geometry">
            <mxPoint x="400" y="370" as="sourcePoint" />
            <mxPoint x="450" y="320" as="targetPoint" />
          </mxGeometry>
        </mxCell>
        <mxCell id="YmNPueGEyuX-N4yrCMFB-35" value="" style="endArrow=none;html=1;rounded=0;exitX=1;exitY=0.5;exitDx=0;exitDy=0;entryX=0.5;entryY=0.5;entryDx=0;entryDy=0;entryPerimeter=0;" edge="1" parent="1" source="YmNPueGEyuX-N4yrCMFB-29" target="YmNPueGEyuX-N4yrCMFB-14">
          <mxGeometry width="50" height="50" relative="1" as="geometry">
            <mxPoint x="712" y="187" as="sourcePoint" />
            <mxPoint x="790" y="370" as="targetPoint" />
          </mxGeometry>
        </mxCell>
        <mxCell id="YmNPueGEyuX-N4yrCMFB-36" value="" style="endArrow=none;html=1;rounded=0;exitX=1;exitY=0.5;exitDx=0;exitDy=0;entryX=0.5;entryY=0.5;entryDx=0;entryDy=0;entryPerimeter=0;" edge="1" parent="1" source="YmNPueGEyuX-N4yrCMFB-30" target="YmNPueGEyuX-N4yrCMFB-14">
          <mxGeometry width="50" height="50" relative="1" as="geometry">
            <mxPoint x="685" y="330" as="sourcePoint" />
            <mxPoint x="800" y="380" as="targetPoint" />
          </mxGeometry>
        </mxCell>
        <mxCell id="YmNPueGEyuX-N4yrCMFB-37" value="" style="endArrow=none;html=1;rounded=0;exitX=1.008;exitY=0.425;exitDx=0;exitDy=0;exitPerimeter=0;entryX=0.5;entryY=0.5;entryDx=0;entryDy=0;entryPerimeter=0;" edge="1" parent="1" source="YmNPueGEyuX-N4yrCMFB-31" target="YmNPueGEyuX-N4yrCMFB-14">
          <mxGeometry width="50" height="50" relative="1" as="geometry">
            <mxPoint x="685" y="480" as="sourcePoint" />
            <mxPoint x="810" y="570" as="targetPoint" />
          </mxGeometry>
        </mxCell>
        <mxCell id="YmNPueGEyuX-N4yrCMFB-65" value="" style="endArrow=none;html=1;rounded=0;exitX=0.5;exitY=0.5;exitDx=0;exitDy=0;exitPerimeter=0;entryX=0;entryY=0.5;entryDx=0;entryDy=0;" edge="1" parent="1" source="YmNPueGEyuX-N4yrCMFB-2" target="YmNPueGEyuX-N4yrCMFB-25">
          <mxGeometry width="50" height="50" relative="1" as="geometry">
            <mxPoint x="400" y="610" as="sourcePoint" />
            <mxPoint x="450" y="560" as="targetPoint" />
          </mxGeometry>
        </mxCell>
        <mxCell id="YmNPueGEyuX-N4yrCMFB-66" value="" style="endArrow=none;html=1;rounded=0;exitX=0.5;exitY=0.5;exitDx=0;exitDy=0;exitPerimeter=0;entryX=0;entryY=0.5;entryDx=0;entryDy=0;" edge="1" parent="1" source="YmNPueGEyuX-N4yrCMFB-2" target="YmNPueGEyuX-N4yrCMFB-20">
          <mxGeometry width="50" height="50" relative="1" as="geometry">
            <mxPoint x="125" y="450" as="sourcePoint" />
            <mxPoint x="345" y="260" as="targetPoint" />
          </mxGeometry>
        </mxCell>
        <mxCell id="YmNPueGEyuX-N4yrCMFB-67" value="" style="endArrow=none;html=1;rounded=0;exitX=0.5;exitY=0.5;exitDx=0;exitDy=0;exitPerimeter=0;entryX=0;entryY=0.5;entryDx=0;entryDy=0;" edge="1" parent="1" source="YmNPueGEyuX-N4yrCMFB-2" target="YmNPueGEyuX-N4yrCMFB-21">
          <mxGeometry width="50" height="50" relative="1" as="geometry">
            <mxPoint x="125" y="450" as="sourcePoint" />
            <mxPoint x="345" y="260" as="targetPoint" />
          </mxGeometry>
        </mxCell>
        <mxCell id="YmNPueGEyuX-N4yrCMFB-68" value="" style="endArrow=none;html=1;rounded=0;exitX=0.5;exitY=0.5;exitDx=0;exitDy=0;exitPerimeter=0;entryX=0;entryY=0.5;entryDx=0;entryDy=0;" edge="1" parent="1" source="YmNPueGEyuX-N4yrCMFB-2" target="YmNPueGEyuX-N4yrCMFB-26">
          <mxGeometry width="50" height="50" relative="1" as="geometry">
            <mxPoint x="125" y="450" as="sourcePoint" />
            <mxPoint x="345" y="340" as="targetPoint" />
          </mxGeometry>
        </mxCell>
        <mxCell id="YmNPueGEyuX-N4yrCMFB-69" value="" style="endArrow=none;html=1;rounded=0;entryX=0;entryY=0.5;entryDx=0;entryDy=0;exitX=0.5;exitY=0.5;exitDx=0;exitDy=0;exitPerimeter=0;" edge="1" parent="1" source="YmNPueGEyuX-N4yrCMFB-2" target="YmNPueGEyuX-N4yrCMFB-22">
          <mxGeometry width="50" height="50" relative="1" as="geometry">
            <mxPoint x="90" y="230" as="sourcePoint" />
            <mxPoint x="345" y="415" as="targetPoint" />
          </mxGeometry>
        </mxCell>
        <mxCell id="YmNPueGEyuX-N4yrCMFB-71" value="" style="endArrow=none;html=1;rounded=0;entryX=0;entryY=0.5;entryDx=0;entryDy=0;exitX=0.5;exitY=0.5;exitDx=0;exitDy=0;exitPerimeter=0;" edge="1" parent="1" source="YmNPueGEyuX-N4yrCMFB-2" target="YmNPueGEyuX-N4yrCMFB-43">
          <mxGeometry width="50" height="50" relative="1" as="geometry">
            <mxPoint x="125" y="450" as="sourcePoint" />
            <mxPoint x="355" y="570" as="targetPoint" />
          </mxGeometry>
        </mxCell>
        <mxCell id="YmNPueGEyuX-N4yrCMFB-72" value="" style="endArrow=none;html=1;rounded=0;entryX=0;entryY=0.5;entryDx=0;entryDy=0;exitX=0.5;exitY=0.5;exitDx=0;exitDy=0;exitPerimeter=0;" edge="1" parent="1" source="YmNPueGEyuX-N4yrCMFB-2" target="YmNPueGEyuX-N4yrCMFB-44">
          <mxGeometry width="50" height="50" relative="1" as="geometry">
            <mxPoint x="125" y="450" as="sourcePoint" />
            <mxPoint x="355" y="640" as="targetPoint" />
          </mxGeometry>
        </mxCell>
        <mxCell id="YmNPueGEyuX-N4yrCMFB-73" value="" style="endArrow=none;html=1;rounded=0;entryX=0;entryY=0.5;entryDx=0;entryDy=0;exitX=0.5;exitY=0.5;exitDx=0;exitDy=0;exitPerimeter=0;" edge="1" parent="1" source="YmNPueGEyuX-N4yrCMFB-15" target="YmNPueGEyuX-N4yrCMFB-23">
          <mxGeometry width="50" height="50" relative="1" as="geometry">
            <mxPoint x="125" y="450" as="sourcePoint" />
            <mxPoint x="355" y="710" as="targetPoint" />
          </mxGeometry>
        </mxCell>
        <mxCell id="YmNPueGEyuX-N4yrCMFB-74" value="" style="endArrow=none;html=1;rounded=0;entryX=0;entryY=0.5;entryDx=0;entryDy=0;exitX=0.5;exitY=0.5;exitDx=0;exitDy=0;exitPerimeter=0;" edge="1" parent="1" source="YmNPueGEyuX-N4yrCMFB-15" target="YmNPueGEyuX-N4yrCMFB-45">
          <mxGeometry width="50" height="50" relative="1" as="geometry">
            <mxPoint x="125" y="780" as="sourcePoint" />
            <mxPoint x="355" y="790" as="targetPoint" />
          </mxGeometry>
        </mxCell>
        <mxCell id="YmNPueGEyuX-N4yrCMFB-75" value="" style="endArrow=none;html=1;rounded=0;entryX=0;entryY=0.5;entryDx=0;entryDy=0;exitX=0.5;exitY=0.5;exitDx=0;exitDy=0;exitPerimeter=0;" edge="1" parent="1" source="YmNPueGEyuX-N4yrCMFB-15" target="YmNPueGEyuX-N4yrCMFB-20">
          <mxGeometry width="50" height="50" relative="1" as="geometry">
            <mxPoint x="125" y="780" as="sourcePoint" />
            <mxPoint x="370" y="880" as="targetPoint" />
          </mxGeometry>
        </mxCell>
        <mxCell id="YmNPueGEyuX-N4yrCMFB-76" value="ADMIN" style="text;strokeColor=none;align=center;fillColor=none;html=1;verticalAlign=middle;whiteSpace=wrap;rounded=0;" vertex="1" parent="1">
          <mxGeometry x="785" y="630" width="60" height="30" as="geometry" />
        </mxCell>
        <mxCell id="YmNPueGEyuX-N4yrCMFB-77" value="GUEST" style="text;strokeColor=none;align=center;fillColor=none;html=1;verticalAlign=middle;whiteSpace=wrap;rounded=0;" vertex="1" parent="1">
          <mxGeometry x="85" y="840" width="60" height="30" as="geometry" />
        </mxCell>
        <mxCell id="YmNPueGEyuX-N4yrCMFB-78" value="HOST" style="text;strokeColor=none;align=center;fillColor=none;html=1;verticalAlign=middle;whiteSpace=wrap;rounded=0;" vertex="1" parent="1">
          <mxGeometry x="85" y="505" width="60" height="30" as="geometry" />
        </mxCell>
        <mxCell id="YmNPueGEyuX-N4yrCMFB-79" value="" style="endArrow=none;html=1;rounded=0;exitX=0.5;exitY=0.5;exitDx=0;exitDy=0;exitPerimeter=0;entryX=0;entryY=0.5;entryDx=0;entryDy=0;" edge="1" parent="1" source="YmNPueGEyuX-N4yrCMFB-15" target="YmNPueGEyuX-N4yrCMFB-21">
          <mxGeometry width="50" height="50" relative="1" as="geometry">
            <mxPoint x="125" y="780" as="sourcePoint" />
            <mxPoint x="330" y="330" as="targetPoint" />
          </mxGeometry>
        </mxCell>
        <mxCell id="YmNPueGEyuX-N4yrCMFB-80" value="" style="endArrow=none;html=1;rounded=0;entryX=0;entryY=0.5;entryDx=0;entryDy=0;exitX=0.5;exitY=0.5;exitDx=0;exitDy=0;exitPerimeter=0;" edge="1" parent="1" source="YmNPueGEyuX-N4yrCMFB-15" target="YmNPueGEyuX-N4yrCMFB-22">
          <mxGeometry width="50" height="50" relative="1" as="geometry">
            <mxPoint x="125" y="780" as="sourcePoint" />
            <mxPoint x="355" y="790" as="targetPoint" />
          </mxGeometry>
        </mxCell>
        <mxCell id="YmNPueGEyuX-N4yrCMFB-81" value="" style="endArrow=none;html=1;rounded=0;entryX=0;entryY=0.5;entryDx=0;entryDy=0;exitX=0.5;exitY=0.5;exitDx=0;exitDy=0;exitPerimeter=0;" edge="1" parent="1" source="YmNPueGEyuX-N4yrCMFB-15" target="YmNPueGEyuX-N4yrCMFB-42">
          <mxGeometry width="50" height="50" relative="1" as="geometry">
            <mxPoint x="125" y="780" as="sourcePoint" />
            <mxPoint x="355" y="790" as="targetPoint" />
          </mxGeometry>
        </mxCell>
        <mxCell id="YmNPueGEyuX-N4yrCMFB-82" value="" style="endArrow=none;html=1;rounded=0;entryX=0;entryY=0.5;entryDx=0;entryDy=0;exitX=0.5;exitY=0.5;exitDx=0;exitDy=0;exitPerimeter=0;" edge="1" parent="1" source="YmNPueGEyuX-N4yrCMFB-15" target="YmNPueGEyuX-N4yrCMFB-43">
          <mxGeometry width="50" height="50" relative="1" as="geometry">
            <mxPoint x="125" y="780" as="sourcePoint" />
            <mxPoint x="355" y="790" as="targetPoint" />
          </mxGeometry>
        </mxCell>
        <mxCell id="YmNPueGEyuX-N4yrCMFB-83" value="USERS" style="text;strokeColor=none;align=center;fillColor=none;html=1;verticalAlign=middle;whiteSpace=wrap;rounded=0;" vertex="1" parent="1">
          <mxGeometry x="45" y="110" width="60" height="30" as="geometry" />
        </mxCell>
      </root>
    </mxGraphModel>
  </diagram>
</mxfile>
